<svg xmlns="http://www.w3.org/2000/svg" version="1.1" xmlns:xlink="http://www.w3.org/1999/xlink" xmlns:svgjs="http://svgjs.com/svgjs" width="100%" height="100%"><svg width="100%" height="100%" viewBox="0 0 652 508" version="1.1" xmlns="http://www.w3.org/2000/svg" xmlns:xlink="http://www.w3.org/1999/xlink" xml:space="preserve" xmlns:serif="http://www.serif.com/" style="fill-rule:evenodd;clip-rule:evenodd;stroke-linejoin:round;stroke-miterlimit:2;">
    <g transform="matrix(1,0,0,1,-120.637,-120.594)">
        <g transform="matrix(12.0594,0,0,12.0594,120.594,120.594)">
            <g transform="matrix(0.54,0,0,0.54,0.00378,0)">
                <g id="SvgjsG1000">
                    <path d="M99.991,26.908C100.008,26.732 100,26.555 99.971,26.381C99.962,26.321 99.951,26.262 99.938,26.203C99.888,25.99 99.816,25.781 99.703,25.587L89.269,7.73C89.258,7.711 89.24,7.698 89.23,7.678C89.219,7.664 89.216,7.646 89.209,7.631C89.195,7.61 89.175,7.597 89.158,7.576C89.125,7.528 89.084,7.484 89.047,7.438C88.971,7.347 88.894,7.264 88.806,7.186C88.758,7.144 88.711,7.103 88.661,7.066C88.627,7.039 88.594,7.011 88.558,6.987C88.461,6.923 88.358,6.876 88.248,6.828C88.192,6.801 88.14,6.771 88.081,6.749C88.04,6.734 87.999,6.718 87.957,6.705C87.943,6.701 87.935,6.693 87.924,6.688L64.389,0.084C64.189,0.028 63.982,0 63.776,0L34.784,0C34.568,0 34.353,0.032 34.146,0.093L11.637,6.698C11.626,6.7 11.617,6.71 11.606,6.713C11.571,6.724 11.535,6.736 11.5,6.75C11.44,6.771 11.386,6.806 11.328,6.833C11.217,6.885 11.108,6.937 11.008,7.004C10.977,7.026 10.949,7.049 10.92,7.072C10.868,7.11 10.822,7.155 10.774,7.198C10.685,7.278 10.604,7.364 10.527,7.457C10.492,7.502 10.453,7.541 10.421,7.589C10.409,7.609 10.39,7.619 10.376,7.638C10.364,7.657 10.361,7.678 10.351,7.697C10.336,7.721 10.314,7.74 10.299,7.766L0.275,25.621C0.169,25.808 0.104,26.008 0.055,26.214C0.042,26.27 0.035,26.325 0.026,26.381C0,26.554 -0.007,26.728 0.006,26.902C0.01,26.95 0.007,26.997 0.014,27.045C0.041,27.236 0.086,27.425 0.162,27.608C0.17,27.628 0.184,27.643 0.192,27.664C0.211,27.706 0.238,27.743 0.26,27.784C0.346,27.948 0.45,28.096 0.572,28.233C0.594,28.259 0.606,28.291 0.629,28.316L48.377,77.295C48.49,77.409 48.612,77.51 48.742,77.598C48.754,77.606 48.767,77.611 48.78,77.619C48.935,77.719 49.1,77.792 49.27,77.849C49.297,77.859 49.32,77.876 49.348,77.884C49.375,77.891 49.401,77.891 49.428,77.897C49.615,77.947 49.805,77.979 49.998,77.982L50.003,77.982C50.196,77.979 50.387,77.948 50.573,77.897C50.6,77.891 50.626,77.892 50.654,77.884C50.68,77.876 50.704,77.858 50.73,77.849C50.9,77.791 51.067,77.718 51.22,77.619C51.231,77.613 51.244,77.61 51.252,77.6L51.253,77.6C51.255,77.6 51.256,77.598 51.257,77.598C51.387,77.511 51.509,77.41 51.623,77.295L99.37,28.316C99.396,28.29 99.405,28.258 99.428,28.232C99.548,28.097 99.65,27.951 99.736,27.791C99.761,27.746 99.789,27.704 99.81,27.657C99.821,27.635 99.836,27.616 99.845,27.593C99.918,27.414 99.964,27.227 99.988,27.04C99.994,26.995 99.989,26.953 99.991,26.908ZM81.532,12.666L78.803,16.212L66.955,31.606L54.155,19.546L68.136,16.032L81.532,12.666ZM48.795,67.046C45.502,59.257 40.504,47.442 37.474,40.275C37.032,39.228 36.637,38.295 36.289,37.474C36.257,37.395 36.223,37.318 36.192,37.244L63.803,37.244L53.173,62.381L49.998,69.89C49.634,69.029 49.226,68.063 48.795,67.046ZM43.744,20.945L32.985,31.577L18.17,12.713L45.138,19.567L43.744,20.945ZM73.118,31.036L80.874,20.957L87.053,12.928L94.294,25.315L73.118,31.036ZM35.109,4.539L63.463,4.539L78.49,8.756L70.786,10.693L49.588,16.021L20.861,8.721L35.109,4.539ZM9.674,31.099L31.138,36.933C31.246,37.188 31.378,37.501 31.542,37.891C32.786,40.832 35.817,48.002 43.224,65.516L9.674,31.099Z" style="fill:rgb(84,37,177);fill-rule:nonzero;"></path>
                </g>
            </g>
        </g>
    </g>
</svg><style>@media (prefers-color-scheme: light) { :root { filter: none; } }
@media (prefers-color-scheme: dark) { :root { filter: contrast(0.625) brightness(2.5); } }
</style></svg>